<svg width="335" height="372" viewBox="0 0 335 372" fill="none" xmlns="http://www.w3.org/2000/svg">
<path d="M48.69 167.693L49.4215 256.037C49.4634 261.102 51.3079 265.861 54.4982 269.976C61.2181 278.648 73.9179 284.463 88.3419 284.344L199.477 283.424C213.373 283.309 225.577 277.712 232.33 269.455C235.92 265.07 237.968 259.937 237.923 254.476L237.192 166.132C237.176 164.193 236.897 162.305 236.375 160.476C234.951 155.416 231.703 150.855 227.162 147.168C220.023 141.357 209.691 137.731 198.271 137.825L87.1364 138.745C70.5438 138.883 56.3643 146.832 50.9941 157.795C49.4793 160.895 48.6613 164.228 48.69 167.693Z" fill="white"/>
<path d="M87.1519 140.881C67.4166 141.045 51.4583 153.061 51.5793 167.669L52.3107 256.012C52.4316 270.619 68.5867 282.371 88.322 282.208L199.461 281.288C219.197 281.124 235.155 269.107 235.034 254.499L234.303 166.156C234.182 151.548 218.027 139.798 198.291 139.961L87.1519 140.881ZM199.497 285.561L88.3574 286.481C65.438 286.671 46.6786 273.025 46.5382 256.059L45.8067 167.717C45.6663 150.752 64.1971 136.797 87.1165 136.607L198.256 135.687C221.175 135.497 239.935 149.144 240.075 166.108L240.807 254.451C240.947 271.416 222.416 285.371 199.497 285.561Z" fill="#1A1D63"/>
<path d="M73.3471 147.22C73.3471 147.22 25.5502 188.133 25.8303 221.968C26.0701 250.928 74.2849 260.491 74.2849 260.491L140.303 176.312L73.3471 147.22Z" fill="white"/>
<path d="M25.8303 221.966C26.0701 250.93 74.2849 260.491 74.2849 260.491L75.9146 258.417L140.304 176.312L89.8255 154.377L73.347 147.217C73.347 147.217 25.5502 188.134 25.8303 221.966Z" fill="white"/>
<path d="M51.8776 241.834C50.881 240.556 49.988 239.213 49.2136 237.806C49.9376 237.94 50.6783 238.038 51.432 238.099C51.6783 238.12 51.9261 238.138 52.1747 238.159C52.065 239.384 51.9658 240.607 51.8776 241.834ZM47.504 214.617C49.9355 205.197 55.1297 195.64 61.1865 186.895C59.6002 192.513 58.2711 198.128 57.1413 203.801C56.4631 207.146 55.8662 210.503 55.3227 213.864C54.8665 213.852 54.4163 213.842 53.9712 213.83C53.7043 213.822 53.4397 213.82 53.1743 213.822C51.1898 213.839 49.2769 214.117 47.504 214.617Z" fill="#B9AFBE"/>
<path d="M73.985 149.981C65.8638 157.32 28.4761 192.711 28.7181 221.945C28.914 245.608 63.9311 255.732 72.9489 257.946L136.366 177.086L73.985 149.981ZM75.6627 262.98L73.5244 262.556C73.0128 262.454 60.8664 260.003 48.5291 253.865C31.8943 245.592 23.0468 234.571 22.9426 221.992C22.6591 187.743 69.1866 147.522 71.1676 145.826L72.7456 144.475L144.24 175.54L75.6627 262.98Z" fill="#1A1D63"/>
<path d="M217.168 195.139C217.168 195.139 237.718 213.873 270.349 209.43C304.188 204.823 297.847 163.144 297.847 163.144L246.255 148.901C246.255 148.901 249.561 161.909 242.108 161.968C233.759 162.035 218.738 147.62 205.688 143.365L217.168 195.139Z" fill="white"/>
<path d="M261.087 207.963C246.482 208.083 234.982 203.457 227.794 199.457L227.447 197.987C226.992 196.181 226.483 194.381 225.999 192.579C225.021 188.977 223.92 185.392 222.755 181.821C222.675 181.581 222.596 181.34 222.516 181.098C230.702 190.203 243.255 200.035 259.229 199.903C260.851 199.889 262.513 199.773 264.206 199.543C288.398 196.247 290.241 174.754 274.288 172.746C275.598 172.812 276.871 172.836 278.09 172.826C282.384 172.791 286.006 172.339 288.122 171.94C290.838 171.427 293.258 170.681 295.402 169.796C295.561 181.213 292.951 204.183 269.841 207.33C266.816 207.741 263.895 207.939 261.087 207.963Z" fill="#B9AFBE"/>
<path d="M260.879 212.259C232.832 212.491 215.716 197.214 214.923 196.491C213.92 195.578 214.112 194.23 215.352 193.483C216.591 192.737 218.407 192.872 219.41 193.784C219.607 193.962 239.338 211.48 269.841 207.33C297.443 203.571 295.8 171.532 295.125 164.678L249.745 152.149C250.103 155.396 249.987 159.85 247.3 162.269C245.988 163.454 244.197 164.09 242.127 164.107L242.123 164.107C236.574 164.15 230.025 159.936 222.445 155.058C216.423 151.181 210.197 147.175 204.512 145.322C203.057 144.846 202.401 143.586 203.05 142.506C203.7 141.425 205.409 140.933 206.862 141.408C213.344 143.521 219.903 147.743 226.246 151.826C232.097 155.591 238.728 159.859 242.092 159.832C242.444 159.829 242.627 159.765 242.847 159.567C244.605 157.984 244.226 152.507 243.418 149.305L242.475 145.575L300.517 161.596L300.715 162.894C300.986 164.677 306.946 206.619 270.858 211.533C267.396 212.004 264.065 212.232 260.879 212.259Z" fill="#1A1D63"/>
<path d="M42.4974 355.647C42.5455 356.009 42.6173 356.373 42.7103 356.718C45.2456 367.426 62.2557 371.12 92.788 367.905C106.613 366.46 125.731 364.719 130.708 356.52C140.649 340.158 130.096 307.305 131.115 286.187L131.115 286.154C131.115 286.154 136.678 286.611 143.573 286.554C150.475 286.497 156.031 285.948 156.031 285.948C156.04 286.12 156.048 286.288 156.057 286.461C157.252 307.573 147.476 340.225 157.602 356.298C162.714 364.413 181.851 365.837 195.705 367.053C226.324 369.761 243.271 365.781 245.608 355.004C245.679 354.658 245.744 354.316 245.793 353.964C247.445 340.84 222.691 334.956 222.691 334.956C222.691 334.956 227.846 307.094 231.194 281.965C232.604 271.398 232.853 260.477 232.295 249.619C232.159 246.808 231.961 243.998 231.718 241.199C231.369 237.216 230.928 233.261 230.406 229.347C229.946 225.951 229.435 222.595 228.863 219.285C226.75 206.84 223.951 195.073 221.078 184.726C218.507 175.445 215.879 167.299 213.629 160.832C213.125 159.405 212.654 158.062 212.197 156.802C209.452 149.181 207.559 144.747 207.559 144.747L77.2568 145.826C77.2568 145.826 75.4203 150.325 72.795 158.029C71.2468 162.542 69.4277 168.164 67.5394 174.631C66.8056 177.159 66.0559 179.816 65.3087 182.589C62.283 193.812 59.3008 206.89 57.1815 220.801C56.688 224.048 56.2385 227.339 55.8417 230.663C55.3631 234.726 54.9751 238.839 54.6915 242.972C54.4807 245.903 54.3313 248.845 54.2419 251.792C54.1842 253.744 54.1478 255.695 54.1411 257.652C54.1066 266.335 54.6388 275.002 55.9023 283.416C59.6593 308.486 65.2749 336.26 65.2749 336.26C65.2749 336.26 40.629 342.552 42.4974 355.647Z" fill="white"/>
<path d="M213.684 365.73C210.572 365.756 207.436 365.671 204.303 365.516C201.914 365.384 199.524 365.235 197.134 365.025L189.903 364.387C185.113 363.933 180.378 363.401 175.846 362.542C171.353 361.679 166.939 360.491 163.684 358.554C162.887 358.068 162.17 357.54 161.556 356.974L161.115 356.54L160.729 356.088C160.589 355.941 160.503 355.776 160.384 355.62L160.218 355.386L160.055 355.101C159.117 353.613 158.468 351.984 157.894 350.338C156.794 347.022 156.271 343.531 156.028 340.009C155.774 336.485 155.812 332.92 155.979 329.346C156.314 322.194 157.164 315.007 157.901 307.775C158.556 301.153 159.219 294.491 158.999 287.71C161.261 287.344 163.392 286.855 165.551 286.297C168.446 285.531 171.264 284.619 173.983 283.565C175.349 283.05 176.673 282.469 177.997 281.903C179.289 281.289 180.581 280.683 181.786 279.972C184.243 278.617 186.491 277.035 188.406 275.248C188.404 275.248 188.402 275.248 188.402 275.249C188.404 275.248 188.406 275.246 188.408 275.245C188.408 275.245 187.394 294.939 172.321 310.139C157.24 325.345 158.924 337.428 168.801 349.451C173.737 355.459 193.985 359.188 214.432 359.018C224.269 358.936 234.155 357.953 242.402 355.886C242.154 356.56 241.83 357.208 241.434 357.82C239.673 360.502 236.191 362.448 232.032 363.611C227.881 364.798 223.23 365.342 218.551 365.593C216.937 365.672 215.313 365.717 213.684 365.73Z" fill="#B9AFBE"/>
<path d="M74.7873 366.88C73.1568 366.894 71.5327 366.876 69.9179 366.824C65.2353 366.65 60.5784 366.183 56.4083 365.065C52.2281 363.972 48.714 362.083 46.9091 359.43C46.4534 358.752 46.0859 358.022 45.8187 357.264C54.1047 358.593 63.3853 359.166 72.4942 359.091C93.5747 358.916 113.716 355.263 118.33 349.452C128.007 337.274 126.864 324.864 112.447 309.373C94.5778 290.175 98.6211 275.988 98.6211 275.988C98.6256 275.989 98.627 275.991 98.6293 275.992C98.627 275.991 98.627 275.991 98.6256 275.991C100.57 277.747 102.844 279.291 105.322 280.605C106.539 281.296 107.84 281.88 109.143 282.473C110.476 283.017 111.809 283.576 113.183 284.068C115.918 285.077 118.753 285.942 121.659 286.661C123.808 287.177 125.927 287.628 128.174 287.956C128.064 294.741 128.837 301.395 129.602 308.01C130.458 315.229 131.428 322.4 131.882 329.546C132.109 333.116 132.205 336.68 132.009 340.207C131.826 343.733 131.359 347.233 130.316 350.567C129.77 352.221 129.145 353.861 128.232 355.364L128.076 355.653L127.912 355.889C127.797 356.047 127.713 356.213 127.575 356.363L127.196 356.821L126.765 357.262C126.16 357.838 125.451 358.378 124.662 358.877C121.439 360.868 117.044 362.128 112.567 363.066C108.051 364 103.325 364.61 98.5417 365.143L91.3219 365.902C88.9379 366.151 86.549 366.339 84.1644 366.511C81.0327 366.718 77.9005 366.855 74.7873 366.88Z" fill="#B9AFBE"/>
<path d="M214.553 160.65C217.763 167.601 220.402 174.687 222.755 181.821C223.92 185.392 225.02 188.977 225.999 192.579C226.483 194.381 226.992 196.181 227.447 197.987L228.732 203.419C229.175 205.228 229.564 207.046 229.94 208.863L231.077 214.316C231.422 216.138 231.744 217.963 232.052 219.791C232.387 221.614 232.646 223.445 232.901 225.277C234.062 232.591 234.679 239.956 235.162 247.321C235.446 254.696 235.679 262.079 235.175 269.471L235.023 272.241L234.95 273.627L234.806 275.01L234.23 280.548C233.832 284.235 233.263 287.865 232.753 291.521C230.615 306.123 228.195 320.677 225.55 335.235L223.586 332.921C224.93 333.256 226.061 333.596 227.26 333.979C228.438 334.359 229.596 334.768 230.739 335.202C233.017 336.081 235.233 337.071 237.336 338.223C239.444 339.361 241.424 340.685 243.191 342.201C244.954 343.718 246.442 345.489 247.454 347.444C248.464 349.401 248.87 351.556 248.698 353.643C248.548 355.699 247.869 357.758 246.615 359.687C245.336 361.598 243.46 363.313 241.248 364.604C239.05 365.922 236.596 366.882 234.105 367.592C229.103 369.015 223.971 369.58 218.921 369.857C213.863 370.107 208.847 370.026 203.878 369.781C201.396 369.643 198.918 369.488 196.459 369.274L189.145 368.627C184.253 368.162 179.312 367.614 174.382 366.682C171.919 366.217 169.458 365.639 167.035 364.89C164.616 364.129 162.224 363.18 160.035 361.881C158.951 361.222 157.927 360.477 157.017 359.635C156.111 358.814 155.331 357.796 154.788 356.872C153.668 355.082 152.93 353.23 152.286 351.382C151.062 347.675 150.52 343.948 150.26 340.252C149.995 336.553 150.037 332.877 150.207 329.223C150.551 321.911 151.411 314.674 152.144 307.476C152.859 300.286 153.556 293.096 153.146 286.063L156.4 288.067C154.205 288.27 152.126 288.403 149.987 288.509C147.861 288.612 145.731 288.673 143.593 288.694C141.454 288.708 139.324 288.683 137.196 288.615C135.057 288.544 132.977 288.445 130.778 288.279L133.999 286.221C133.703 293.26 134.52 300.438 135.355 307.615C136.206 314.8 137.187 322.022 137.65 329.327C137.881 332.978 137.984 336.652 137.779 340.356C137.583 344.055 137.103 347.791 135.938 351.517C135.325 353.376 134.62 355.24 133.529 357.048C133 357.98 132.236 359.012 131.344 359.847C130.45 360.705 129.437 361.467 128.364 362.144C126.197 363.478 123.821 364.467 121.417 365.267C119.005 366.056 116.554 366.676 114.1 367.181C109.187 368.195 104.255 368.824 99.3721 369.37L92.068 370.138C89.6124 370.393 87.137 370.589 84.6578 370.768C79.6933 371.095 74.6816 371.259 69.6206 371.093C64.5668 370.9 59.4248 370.42 54.3992 369.08C51.896 368.412 49.4269 367.492 47.2077 366.211C44.9739 364.956 43.0698 363.273 41.7599 361.383C40.4742 359.475 39.761 357.427 39.5791 355.374C39.3726 353.29 39.7428 351.129 40.7177 349.155C41.6985 347.184 43.1583 345.389 44.8937 343.843C46.6349 342.298 48.5936 340.941 50.6846 339.768C52.7674 338.582 54.9653 337.555 57.2307 336.638C58.366 336.185 59.5163 335.757 60.6883 335.358C61.8787 334.956 63.0037 334.596 64.3445 334.239L62.417 336.586C59.5122 321.961 56.8269 307.333 54.4368 292.655C53.8631 288.977 53.2312 285.334 52.7688 281.616C52.5509 279.76 52.2539 277.906 52.104 276.047L51.632 270.469C51.1765 263.027 51.1703 255.583 51.5079 248.152C51.8285 240.721 52.5639 233.305 53.5435 225.914C53.7566 224.065 54.0348 222.219 54.3092 220.374C54.5704 218.527 54.856 216.683 55.166 214.841C55.7526 211.154 56.3978 207.472 57.1413 203.801C58.6089 196.441 60.4071 189.178 62.6721 181.879C63.2669 180.069 63.8974 178.274 64.5766 176.485C65.2352 174.691 65.9455 172.909 66.6892 171.131C68.1951 167.581 69.8045 164.042 71.8746 160.61C72.0926 160.248 72.6649 160.083 73.1526 160.244C73.5736 160.381 73.7936 160.714 73.7076 161.035L73.704 161.044C71.7635 168.261 69.986 175.516 68.1099 182.733C66.436 189.921 64.7675 197.217 63.2228 204.466C60.0839 218.98 57.9159 233.619 57.2782 248.278C56.9456 255.605 56.9531 262.935 57.3994 270.242C57.8671 277.544 58.9812 284.789 60.1692 292.125C62.5499 306.747 65.2329 321.364 68.1276 335.932L68.4732 337.673L66.2023 338.279C65.239 338.536 64.1103 338.889 63.0784 339.24C62.025 339.599 60.9875 339.985 59.9693 340.392C57.9382 341.214 55.9855 342.128 54.1845 343.155C50.5853 345.189 47.552 347.711 46.1514 350.586C45.4455 352.016 45.1933 353.524 45.3382 355.041C45.4686 356.594 46.0222 358.108 46.9091 359.43C48.7139 362.083 52.2281 363.972 56.4083 365.065C60.5783 366.183 65.2353 366.65 69.9179 366.824C74.6196 366.978 79.3926 366.825 84.1643 366.511C86.5489 366.339 88.9379 366.151 91.3218 365.902L98.5417 365.143C103.325 364.611 108.051 364 112.567 363.066C117.044 362.128 121.439 360.868 124.662 358.877C125.451 358.378 126.16 357.838 126.765 357.262L127.196 356.821L127.575 356.363C127.713 356.213 127.797 356.047 127.911 355.889L128.076 355.653L128.232 355.364C129.145 353.861 129.77 352.221 130.316 350.567C131.359 347.233 131.826 343.733 132.009 340.207C132.204 336.68 132.109 333.116 131.882 329.546C131.428 322.4 130.458 315.229 129.602 308.01C128.768 300.789 127.921 293.523 128.226 286.088L128.323 283.792L131.447 284.031C133.386 284.178 135.459 284.279 137.475 284.344C139.503 284.409 141.534 284.435 143.557 284.419C145.58 284.401 147.61 284.342 149.638 284.243C151.652 284.145 153.723 284.01 155.659 283.83L158.78 283.54L158.913 285.834C159.344 293.262 158.617 300.542 157.901 307.775C157.164 315.007 156.314 322.194 155.979 329.346C155.812 332.92 155.774 336.485 156.027 340.009C156.271 343.531 156.794 347.022 157.894 350.338C158.468 351.984 159.117 353.613 160.054 355.101L160.218 355.387L160.384 355.62C160.503 355.776 160.589 355.941 160.729 356.088L161.115 356.54L161.556 356.974C162.17 357.54 162.887 358.068 163.684 358.554C166.939 360.491 171.353 361.679 175.846 362.542C180.378 363.401 185.113 363.933 189.903 364.387L197.134 365.025C199.524 365.235 201.914 365.384 204.303 365.517C209.077 365.752 213.854 365.825 218.551 365.593C223.23 365.342 227.881 364.798 232.032 363.611C236.191 362.448 239.673 360.502 241.434 357.82C242.301 356.483 242.827 354.96 242.933 353.405C243.052 351.886 242.776 350.382 242.047 348.964C240.597 346.113 237.522 343.641 233.891 341.667C232.074 340.67 230.105 339.789 228.06 339C227.035 338.61 225.992 338.242 224.935 337.9C223.896 337.566 222.763 337.232 221.795 336.991L219.513 336.422L219.829 334.676C222.464 320.176 224.883 305.631 227.012 291.086C227.518 287.454 228.09 283.802 228.478 280.184L229.042 274.761L229.184 273.406L229.249 272.046L229.378 269.326C229.806 262.075 229.573 254.802 229.175 247.541C228.101 233.021 225.873 218.546 222.883 204.147C219.84 189.751 216.185 175.432 212.689 161.011C212.596 160.623 212.945 160.25 213.468 160.178C213.945 160.114 214.402 160.32 214.553 160.65Z" fill="#1A1D63"/>
<path d="M90.5554 320.199C66.8888 320.395 58.6849 312.834 58.2043 312.37C57.2394 311.434 57.484 310.093 58.7531 309.372C60.0134 308.656 61.8102 308.824 62.781 309.745C63.0364 309.977 78.6479 323.476 131.132 309.727C132.643 309.333 134.284 309.915 134.808 311.027C135.334 312.14 134.539 313.361 133.033 313.756C115.211 318.425 101.291 320.11 90.5554 320.199Z" fill="#1A1D63"/>
<path d="M199.521 320.297C178.337 320.472 155.587 315.128 154.141 314.782C152.625 314.42 151.8 313.217 152.298 312.094C152.792 310.969 154.429 310.352 155.939 310.713C156.45 310.835 207.208 322.76 224.667 310.602C225.832 309.792 227.66 309.83 228.748 310.688C229.837 311.544 229.778 312.898 228.612 313.708C221.674 318.539 210.821 320.203 199.521 320.297Z" fill="#1A1D63"/>
<path d="M33.4186 121.7C34.6386 121.567 35.4847 120.728 35.3087 119.826L26.1847 72.8189C26.0109 71.9181 24.88 71.2955 23.6622 71.4293C10.8788 72.8362 2.00257 81.6413 3.83935 91.0974L6.95018 107.125C8.78474 116.582 20.6367 123.107 33.4186 121.7Z" fill="white"/>
<path d="M23.972 71.7949C23.8944 71.7955 23.8154 71.8006 23.7356 71.8094C17.6895 72.4745 12.3449 74.8407 8.68505 78.4739C5.02294 82.1049 3.48398 86.5679 4.35109 91.0396L7.46416 107.07C8.33202 111.542 11.5025 115.486 16.3915 118.179C21.279 120.871 27.2999 121.985 33.346 121.321C34.2795 121.218 34.929 120.573 34.7969 119.882L25.6729 72.8745C25.6073 72.5408 25.3706 72.2456 25.0037 72.0441C24.703 71.8786 24.3431 71.7918 23.972 71.7949ZM30.194 122.276C25.0127 122.319 19.9867 121.118 15.7683 118.796C10.6565 115.981 7.34488 111.858 6.43765 107.183L3.32458 91.1531C2.41735 86.4783 4.02487 81.8138 7.85412 78.0157C11.6812 74.2187 17.2673 71.7454 23.5896 71.0501C24.3074 70.9698 25.0374 71.1038 25.6247 71.4267C26.2143 71.7512 26.5945 72.224 26.6994 72.7626L35.8234 119.77C36.0389 120.879 34.9934 121.915 33.492 122.08C32.3916 122.202 31.2893 122.267 30.194 122.276Z" fill="#1A1D63"/>
<path d="M30.1819 119.753C25.7354 119.79 21.4278 118.762 17.8101 116.77C13.429 114.357 10.5857 110.82 9.80892 106.812L9.15266 103.435C13.3527 106.748 19.2659 108.783 25.6664 108.869C26.0408 109.814 26.4367 110.755 26.8532 111.685C27.9655 114.434 29.2901 117.122 30.816 119.741C30.604 119.747 30.3941 119.752 30.1819 119.753Z" fill="#B9AFBE"/>
<path d="M23.4217 73.623C18.2709 74.3113 13.7297 76.3924 10.5801 79.5169C7.297 82.7727 5.91905 86.7743 6.69732 90.7821L9.8089 106.812C10.5857 110.82 13.429 114.357 17.8101 116.77C22.0152 119.086 27.1535 120.099 32.3572 119.652L23.4217 73.623ZM30.2026 124.03C24.5091 124.077 18.9862 122.757 14.3496 120.204C8.7322 117.112 5.08972 112.578 4.09143 107.441L0.98059 91.4111C-0.0154833 86.273 1.75082 81.146 5.9569 76.9722C10.1645 72.7989 16.3052 70.0797 23.2515 69.3164C24.6014 69.1651 25.9503 69.4155 27.0456 70.0187C28.1386 70.6218 28.8496 71.5039 29.0434 72.5052L38.1674 119.512C38.5689 121.578 36.6224 123.507 33.8301 123.815C32.6182 123.948 31.4058 124.02 30.2026 124.03Z" fill="#1A1D63"/>
<path d="M233.431 48.3523C232.211 48.4855 231.365 49.3241 231.541 50.2265L240.665 97.2336C240.839 98.1354 241.97 98.7564 243.188 98.6232C255.972 97.2163 264.847 88.4112 263.011 78.955L259.9 62.9264C258.064 53.4708 246.213 46.9448 233.431 48.3523Z" fill="white"/>
<path d="M233.504 48.7308C232.571 48.8337 231.921 49.4792 232.054 50.1703L241.177 97.1773C241.243 97.5116 241.479 97.8067 241.845 98.0083C242.212 98.2094 242.661 98.2927 243.114 98.243C249.161 97.5779 254.506 95.2111 258.166 91.5785C261.827 87.947 263.365 83.4845 262.497 79.0123L259.386 62.9826C258.518 58.5104 255.348 54.5662 250.459 51.8737C245.571 49.1829 239.552 48.069 233.504 48.7308ZM242.883 99.0251C242.286 99.03 241.708 98.8915 241.224 98.6252C240.636 98.3012 240.256 97.8278 240.151 97.2898L231.027 50.2822C230.811 49.1733 231.857 48.1366 233.356 47.9715C239.674 47.2763 245.972 48.4426 251.082 51.2563C256.191 54.0717 259.505 58.1953 260.412 62.869L263.523 78.8988C264.43 83.5736 262.823 88.2402 258.996 92.0367C255.169 95.8332 249.581 98.307 243.261 99.0022C243.134 99.017 243.008 99.024 242.883 99.0251Z" fill="#1A1D63"/>
<path d="M244.606 96.2457C245.375 92.2447 245.754 88.177 245.717 84.0689C251.685 82.7775 256.563 79.8154 259.518 76.0021L260.153 79.2698C260.931 83.2793 259.553 87.2798 256.27 90.5356C253.363 93.4195 249.27 95.4143 244.606 96.2457Z" fill="#B9AFBE"/>
<path d="M234.493 50.4007L243.429 96.4294C248.58 95.7406 253.121 93.6611 256.27 90.5356C259.553 87.2798 260.931 83.2793 260.153 79.2698L257.041 63.2401C256.263 59.2322 253.422 55.6956 249.04 53.2818C244.835 50.9678 239.694 49.9517 234.493 50.4007ZM242.899 100.779C240.384 100.799 238.174 99.4395 237.807 97.5472L228.683 50.5402C228.281 48.4759 230.228 46.5454 233.018 46.2378L233.02 46.2378C239.963 45.4728 246.884 46.756 252.5 49.8484C258.118 52.9407 261.76 57.4736 262.756 62.6117L265.869 78.6414C266.866 83.7794 265.099 88.9075 260.893 93.0797C256.686 97.2536 250.545 99.9728 243.599 100.738C243.362 100.763 243.129 100.777 242.899 100.779Z" fill="#1A1D63"/>
<path d="M55.5101 161.052C54.7504 160.534 53.9987 160.008 53.2581 159.474C54.9326 155.579 57.7914 152.063 61.518 149.165C62.7104 149.894 63.927 150.606 65.165 151.301C62.5027 153.834 59.1507 157.151 55.5101 161.052ZM223.98 150.371C220.194 147.951 216.345 145.577 212.494 143.713C213.02 143.324 213.539 142.93 214.056 142.532C218.42 144.08 222.294 146.267 225.453 148.93C224.971 149.413 224.48 149.895 223.98 150.371Z" fill="#B9AFBE"/>
<path d="M53.2581 159.474C52.4951 158.923 51.741 158.363 50.9941 157.795C52.831 154.047 55.696 150.652 59.3357 147.8C60.0536 148.26 60.7817 148.718 61.518 149.165C57.7914 152.063 54.9326 155.579 53.2581 159.474ZM225.453 148.93C222.294 146.267 218.42 144.08 214.056 142.532C214.748 142 215.433 141.46 216.106 140.913C220.287 142.491 224.032 144.62 227.162 147.168C226.606 147.761 226.035 148.348 225.453 148.93Z" fill="#1A1D63"/>
<path d="M67.8839 168.383C65.1529 166.985 62.5025 165.496 59.9422 163.922C63.7159 159.842 67.1807 156.394 69.8802 153.806C70.7902 154.265 71.712 154.714 72.6425 155.153C72.9698 155.309 73.2985 155.462 73.6265 155.615C73.3608 156.38 73.0814 157.185 72.7949 158.029C72.5236 158.819 72.245 159.642 71.9587 160.499C71.9265 160.534 71.8987 160.57 71.8746 160.61C70.3397 163.155 69.0574 165.76 67.8839 168.383Z" fill="#B9AFBE"/>
<path d="M59.9422 163.922C58.9571 163.316 57.9851 162.698 57.0278 162.068C56.5165 161.733 56.0103 161.394 55.51 161.052C59.1507 157.151 62.5027 153.834 65.1649 151.301C66.7029 152.163 68.2747 152.999 69.8802 153.806C67.1807 156.394 63.7159 159.842 59.9422 163.922Z" fill="#1A1D63"/>
<path d="M213.11 159.361C212.796 158.472 212.494 157.619 212.197 156.802C210.574 152.291 209.246 148.898 208.435 146.879C212.306 148.658 216.336 151.144 220.318 153.69C218.038 155.658 215.634 157.551 213.11 159.361Z" fill="#B9AFBE"/>
<path d="M220.318 153.69C216.336 151.144 212.306 148.658 208.435 146.879C208.401 146.796 208.369 146.717 208.338 146.64C209.757 145.69 211.145 144.714 212.494 143.713C216.345 145.577 220.194 147.951 223.98 150.371C223.388 150.934 222.788 151.493 222.174 152.046C221.565 152.6 220.945 153.148 220.318 153.69Z" fill="#1A1D63"/>
<path d="M134.202 183.433C133.595 183.438 132.985 183.439 132.38 183.437C110.329 183.377 89.235 178.575 71.3418 170.088C72.1129 167.072 72.8944 164.054 73.704 161.044L73.7076 161.034C73.7937 160.714 73.5736 160.381 73.1526 160.244C73.0236 160.201 72.8867 160.181 72.7529 160.182C72.4403 160.185 72.1389 160.301 71.9587 160.499C72.2451 159.642 72.5236 158.819 72.795 158.029C73.0814 157.185 73.3608 156.38 73.6265 155.615C91.9327 164.073 112.708 168.351 133.873 168.175C141.635 168.11 149.452 167.447 157.215 166.171C176.93 162.932 194.312 156.027 208.338 146.64C208.369 146.717 208.401 146.796 208.435 146.879C209.246 148.898 210.574 152.291 212.197 156.802C212.494 157.619 212.796 158.472 213.11 159.361C212.015 160.153 210.896 160.927 209.753 161.686C195.488 171.152 177.834 178.119 157.823 181.404C149.902 182.704 141.998 183.368 134.202 183.433Z" fill="#B9AFBE"/>
<path d="M71.3418 170.088C70.6272 169.749 69.9184 169.405 69.2155 169.055C68.7687 168.834 68.3241 168.61 67.8839 168.383C69.0574 165.76 70.3397 163.155 71.8746 160.61C71.8987 160.57 71.9265 160.534 71.9587 160.499C72.1389 160.301 72.4403 160.185 72.7529 160.182C72.8867 160.181 73.0236 160.201 73.1526 160.244C73.5736 160.381 73.7937 160.714 73.7076 161.034L73.704 161.044C72.8944 164.054 72.1129 167.072 71.3418 170.088Z" fill="#1A1D63"/>
<path d="M26.4903 102.594C39.2988 146.257 97.5517 173.788 156.601 164.085C215.653 154.384 253.141 111.124 240.334 67.4616C227.525 23.7985 169.272 -3.73222 110.222 5.97033C51.1708 15.6712 13.6834 58.9312 26.4903 102.594Z" fill="white"/>
<path d="M132.771 4.42074C125.363 4.48207 117.852 5.1089 110.331 6.34476C81.9062 11.0146 57.5844 23.5893 41.8455 41.7529C26.1044 59.9166 20.8317 81.4936 26.9967 102.51C33.1617 123.528 50.0266 141.467 74.4854 153.027C98.9457 164.586 128.069 168.38 156.493 163.711C215.17 154.07 252.552 110.93 239.827 67.544C228.732 29.7204 183.153 4.0036 132.771 4.42074ZM133.865 166.422C112.772 166.597 92.0765 162.254 73.9231 153.675C49.2328 142.006 32.2068 123.894 25.9839 102.677C19.7604 81.4592 25.0824 59.6772 40.9721 41.34C56.8625 23.0043 81.4162 10.3101 110.111 5.59428C169.346 -4.1377 227.99 23.579 240.84 67.3786C253.687 111.177 215.947 154.727 156.712 164.461C149.114 165.709 141.461 166.357 133.865 166.422Z" fill="#1A1D63"/>
<path d="M133.853 163.898C116.78 164.039 99.9674 161.127 84.6414 155.316C96.149 157.657 110.127 159.255 125.573 159.127C134.484 159.054 143.883 158.404 153.579 156.992C178.558 153.352 200.307 144.174 215.383 135.024C200.701 148.216 180.195 158.022 155.99 161.999C148.626 163.208 141.217 163.838 133.853 163.898Z" fill="#B9AFBE"/>
<path d="M132.785 6.17415C125.538 6.23415 118.19 6.84705 110.834 8.05638C83.0268 12.6242 59.2342 24.9259 43.8365 42.6928C28.4403 60.4619 23.2812 81.5701 29.3116 102.131C35.3442 122.69 51.8407 140.241 75.7675 151.548C99.6942 162.856 128.187 166.567 155.99 161.999C213.392 152.569 249.961 110.368 237.512 67.9243C226.656 30.9238 182.072 5.76608 132.785 6.17415ZM133.873 168.175C112.327 168.354 91.1863 163.918 72.6425 155.153C47.4201 143.234 30.0265 124.731 23.6691 103.057C17.3109 81.3827 22.7488 59.1308 38.9811 40.3995C55.2127 21.6677 80.2956 8.69987 109.609 3.88427C170.117 -6.05741 230.029 22.2551 243.155 66.9983C256.279 111.741 217.725 156.23 157.215 166.171C149.452 167.447 141.635 168.11 133.873 168.175Z" fill="#1A1D63"/>
<path d="M27.4285 104.568C31.6498 120.089 42.3816 133.459 57.2764 143.602C68.4432 151.206 108.61 161.369 153.034 154.895C194.225 148.893 227.227 126.973 233.532 116.701C241.941 103.002 244.835 87.5526 240.613 72.0322C229.442 30.9598 177.091 21.2161 118.219 30.201C59.3472 39.1864 16.2566 63.497 27.4285 104.568Z" fill="#1A1D63"/>
<path d="M30.2588 104.136C34.2232 118.714 44.2454 131.816 59.2369 142.026C69.192 148.805 107.968 159.287 152.491 152.799C192.665 146.945 224.894 125.617 230.903 115.827C239.369 102.034 241.747 87.0403 237.782 72.4648C232.706 53.8022 218.724 40.9718 196.223 34.3316C175.979 28.356 149.203 27.6514 118.787 32.2945C88.3727 36.9359 64.0969 45.4314 48.5899 56.8635C31.3504 69.5683 25.1829 85.4735 30.2588 104.136ZM125.573 159.127C91.1866 159.412 64.0696 151.139 55.3158 145.179C39.4256 134.357 28.8026 120.464 24.5987 105C19.115 84.8414 25.8187 67.6296 44.5246 53.8409C60.8368 41.8184 86.1234 32.9195 117.649 28.1075C149.174 23.2971 177.092 24.0748 198.385 30.3596C222.801 37.5655 237.96 51.4405 243.443 71.5995C247.651 87.0631 245.131 102.962 236.16 117.578C229.533 128.371 196.273 150.771 153.579 156.992C143.883 158.404 134.484 159.053 125.573 159.127Z" fill="#1A1D63"/>
<path d="M63.8751 107.554C59.7013 107.588 55.3327 105.883 51.9047 102.97C49.686 99.8751 47.6969 96.6674 45.9554 93.358C44.7507 87.4924 47.5921 82.1376 53.4136 80.4059C54.6442 80.0401 55.9296 79.8598 57.2334 79.849C63.5551 79.7967 70.3238 83.7341 73.5948 89.8223C77.5385 97.1655 74.8967 104.854 67.695 106.997C66.4643 107.363 65.1789 107.543 63.8751 107.554Z" fill="#C3BAC7"/>
<path d="M86.0537 125.294C83.1209 125.318 80.0773 124.013 78.3325 121.746C75.9108 118.596 76.9141 114.782 80.5786 113.23C81.6039 112.794 82.7316 112.583 83.875 112.573C86.8093 112.549 89.8537 113.856 91.5984 116.121C94.0202 119.273 93.0162 123.085 89.3524 124.638C88.3249 125.074 87.1986 125.285 86.0537 125.294Z" fill="#C3BAC7"/>
<path d="M125.749 154.83C93.1341 155.099 67.1269 147.399 59.2369 142.026C44.2455 131.816 34.2232 118.714 30.2588 104.136C26.4263 90.0421 29.0036 77.52 37.9236 66.7618C38.2285 70.4655 38.9017 74.2893 39.9788 78.2345C41.4038 83.4779 43.4155 88.5271 45.9553 93.358C46.2433 94.7508 46.7562 96.1723 47.5137 97.5804C48.6241 99.6497 50.1397 101.471 51.9047 102.97C58.6162 112.33 67.4334 120.675 77.8584 127.774C89.0631 135.404 123.244 145.056 164.928 144.711C172.217 144.651 179.741 144.284 187.406 143.549C176.928 147.599 165.101 150.961 152.491 152.799C143.26 154.144 134.28 154.76 125.749 154.83Z" fill="#2A1A3B"/>
<path d="M125.907 156.951C93.0586 157.223 66.1023 149.613 57.2749 143.602C42.3875 133.457 31.6512 120.089 27.4284 104.566C22.9448 88.069 27.2072 74.2712 37.7379 63.0877C37.7598 64.2994 37.8209 65.5228 37.9236 66.7618C29.0036 77.52 26.4263 90.0421 30.2588 104.136C34.2232 118.714 44.2455 131.816 59.2369 142.026C67.127 147.399 93.1342 155.099 125.749 154.83C134.28 154.76 143.26 154.144 152.491 152.799C165.101 150.961 176.928 147.599 187.406 143.548C190.089 143.29 192.791 142.987 195.505 142.636C183.216 148.022 168.723 152.615 153.038 154.898C143.73 156.253 134.614 156.879 125.907 156.951Z" fill="#2A1A3B"/>
<path d="M51.9047 102.97C50.1397 101.471 48.6241 99.6497 47.5137 97.5804C46.7562 96.1723 46.2433 94.7508 45.9553 93.358C47.6969 96.6674 49.6859 99.8751 51.9047 102.97Z" fill="#858290"/>
<path d="M26.8141 69.2896C26.1689 69.2949 25.5171 69.1406 24.9771 68.8173C23.8925 68.1681 23.615 67.0554 24.2396 66.1704C38.011 43.4737 71.4456 26.5641 116.003 19.7637C160.919 12.9084 200.668 19.0792 225.061 36.6922L223.057 38.2342L221.251 39.9092L223.057 38.2342L221.249 39.9075L221.021 39.7595C198.013 23.1493 160.154 17.3837 117.142 23.9491C74.3697 30.4771 42.4055 46.534 29.4453 68.0045L29.3184 68.2167L29.0391 68.4921C28.4712 69.0094 27.6486 69.2827 26.8141 69.2896Z" fill="#1A1D63"/>
<path d="M223.319 100.118C223.319 100.118 215.898 87.0755 195.94 68.0376C170.057 43.351 120.734 42.1098 120.734 42.1098C119.9 41.1039 131.899 38.7313 148.459 38.5942C162.563 38.4774 179.979 39.9833 195.582 45.3358C229.502 56.9764 223.319 100.118 223.319 100.118Z" fill="#C3BAC7"/>
<path d="M155.528 283.845L159.586 283.038C160.962 282.74 162.348 282.462 163.721 282.14C166.481 281.532 169.223 280.855 171.94 280.115C174.674 279.395 177.34 278.554 180.066 277.741C182.813 276.948 185.483 276.028 188.406 275.248C186.491 277.035 184.243 278.617 181.786 279.972C180.581 280.683 179.289 281.289 177.996 281.903C176.673 282.469 175.349 283.05 173.983 283.565C171.264 284.619 168.446 285.531 165.551 286.297C162.624 287.052 159.752 287.684 156.53 288.051C154.953 288.231 153.486 287.431 153.251 286.265C153.032 285.181 153.957 284.162 155.355 283.879L155.528 283.845Z" fill="#1A1D63"/>
<path d="M130.708 288.265C127.481 287.951 124.598 287.366 121.659 286.661C118.753 285.942 115.918 285.077 113.183 284.068C111.809 283.576 110.476 283.017 109.143 282.473C107.84 281.88 106.539 281.296 105.322 280.605C102.844 279.291 100.57 277.747 98.6256 275.991C101.56 276.723 104.243 277.599 107.005 278.346C109.742 279.113 112.424 279.91 115.169 280.585C117.898 281.28 120.651 281.911 123.421 282.474C124.799 282.773 126.19 283.028 127.569 283.303L131.64 284.043L131.799 284.073C133.346 284.353 134.284 285.51 133.897 286.655C133.536 287.721 132.142 288.4 130.708 288.265Z" fill="#1A1D63"/>
<path d="M222.189 337.063C220.508 336.926 218.645 336.801 216.856 336.701C215.05 336.608 213.239 336.512 211.424 336.474C207.797 336.364 204.169 336.377 200.547 336.516C196.926 336.682 193.353 337.058 189.757 337.519C186.18 338.046 182.682 338.792 179.03 339.724C181.774 337.728 185.17 336.204 188.755 335.058C192.366 333.961 196.168 333.258 199.997 332.767C203.833 332.32 207.705 332.101 211.571 332.096C213.503 332.108 215.435 332.144 217.363 332.275C219.308 332.386 221.172 332.56 223.19 332.848C224.753 333.072 225.77 334.192 225.461 335.352C225.167 336.45 223.786 337.189 222.311 337.072L222.189 337.063Z" fill="#1A1D63"/>
<path d="M64.7298 334.16C66.7443 333.838 68.6024 333.634 70.5467 333.49C72.4716 333.327 74.4032 333.259 76.3351 333.215C80.2005 333.157 84.075 333.311 87.9174 333.695C91.7551 334.123 95.5693 334.762 99.1976 335.8C102.802 336.886 106.22 338.353 108.999 340.304C105.33 339.433 101.82 338.744 98.2365 338.277C94.6319 337.875 91.0532 337.559 87.4319 337.453C83.8078 337.374 80.1788 337.421 76.5546 337.591C74.7427 337.659 72.9306 337.785 71.1265 337.907C69.3396 338.037 67.4789 338.193 65.7994 338.358L65.6901 338.368C64.1095 338.523 62.6643 337.7 62.4617 336.529C62.2706 335.42 63.2785 334.395 64.7298 334.16Z" fill="#1A1D63"/>
<path d="M143.557 284.419C141.534 284.435 139.503 284.409 137.475 284.344C135.531 284.281 133.536 284.186 131.656 284.045L131.64 284.043L127.569 283.303C126.19 283.028 124.799 282.773 123.421 282.474C120.651 281.911 117.898 281.28 115.169 280.585C112.424 279.91 109.742 279.113 107.005 278.346C105.283 277.88 103.589 277.363 101.845 276.862C108.437 277.438 131.164 279.31 146.214 279.185C160.905 279.063 179.161 276.95 185.04 276.221C183.362 276.735 181.728 277.262 180.066 277.741C177.34 278.554 174.674 279.395 171.94 280.115C169.223 280.855 166.481 281.532 163.721 282.14C162.348 282.462 160.962 282.74 159.586 283.038L155.561 283.839C153.653 284.015 151.618 284.147 149.638 284.243C147.61 284.342 145.58 284.401 143.557 284.419Z" fill="#B9AFBE"/>
<path d="M142.653 286.072C139.616 286.097 136.708 285.991 133.944 285.783C133.762 284.972 132.948 284.28 131.799 284.073L131.656 284.045C133.536 284.186 135.531 284.281 137.475 284.344C139.503 284.409 141.534 284.435 143.557 284.419C145.58 284.401 147.61 284.342 149.638 284.243C151.618 284.147 153.653 284.015 155.561 283.839L155.528 283.845L155.355 283.879C154.291 284.095 153.5 284.737 153.281 285.509C150.477 285.78 147.504 285.968 144.362 286.044C143.787 286.059 143.219 286.068 142.653 286.072Z" fill="#1A1D63"/>
<path d="M153.281 285.509C153.5 284.737 154.291 284.095 155.355 283.879L155.528 283.845L155.561 283.839L159.586 283.038C160.962 282.74 162.348 282.462 163.721 282.14C166.481 281.532 169.223 280.855 171.94 280.115C174.674 279.395 177.34 278.554 180.066 277.741C181.728 277.262 183.362 276.735 185.04 276.221C186.271 276.069 186.959 275.978 186.959 275.978C186.959 275.978 175.38 283.37 153.281 285.509Z" fill="#1A1D63"/>
<path d="M133.944 285.783C112.846 284.196 99.9915 276.698 99.9915 276.698C99.9915 276.698 100.656 276.758 101.845 276.862C103.589 277.363 105.283 277.88 107.005 278.346C109.742 279.113 112.424 279.91 115.169 280.585C117.898 281.28 120.651 281.911 123.421 282.474C124.799 282.773 126.19 283.028 127.569 283.303L131.64 284.043L131.656 284.045L131.799 284.073C132.948 284.28 133.762 284.972 133.944 285.783Z" fill="#1A1D63"/>
<path d="M186.059 256.515L101.637 257.214C93.1338 257.284 86.1286 252.188 86.0766 245.899L86.0388 241.342C85.8721 241.383 85.7134 241.412 85.5474 241.447L85.54 241.447C85.2375 241.511 84.9371 241.564 84.6271 241.617C84.3629 241.67 84.0846 241.711 83.8056 241.764C83.7672 241.77 83.7222 241.776 83.6845 241.782C83.1951 241.864 82.6887 241.941 82.1837 242.013C81.6846 242.088 81.1804 242.16 80.6679 242.22C80.5845 242.238 80.4936 242.244 80.4035 242.25C79.9649 242.31 79.5278 242.364 79.0743 242.413C78.6076 242.467 78.1232 242.521 77.6409 242.565C77.3388 242.595 77.0308 242.625 76.7205 242.645C76.3572 242.681 75.9886 242.711 75.6251 242.742C75.0674 242.786 74.5023 242.83 73.9423 242.863L73.9046 242.863C73.3468 242.901 72.7809 242.934 72.2208 242.961C71.7768 242.987 71.3305 243.007 70.8857 243.028C70.5148 243.042 70.1364 243.057 69.7529 243.065C69.1869 243.092 68.6193 243.108 68.054 243.119C67.5093 243.134 66.9809 243.144 66.4384 243.149C66.0311 243.155 65.6246 243.16 65.2174 243.163C62.6423 243.184 60.0763 243.15 57.5684 243.075C57.6713 241.566 57.7874 240.055 57.9205 238.546C62.1276 238.781 66.6096 238.923 71.1072 238.886C76.6735 238.839 82.2605 238.519 87.3678 237.761L87.3805 239.293C87.4384 246.29 95.1746 251.92 104.628 251.841L182.49 251.197C191.943 251.119 199.586 245.362 199.528 238.365L199.52 237.437C202.989 237.68 206.577 237.764 210.16 237.734C216.432 237.682 222.675 237.282 228.171 236.779C228.345 238.325 228.506 239.873 228.655 241.42C224.632 241.688 220.357 241.878 216.052 241.913C211.08 241.954 206.072 241.791 201.386 241.305L201.416 244.945C201.468 251.233 194.548 256.445 186.059 256.515Z" fill="#B9AFBE"/>
<path d="M57.5685 243.075C56.5992 243.047 55.6395 243.012 54.6915 242.972C54.7956 241.434 54.9159 239.899 55.0504 238.369C55.9896 238.432 56.9474 238.492 57.9205 238.546C57.7874 240.055 57.6713 241.566 57.5685 243.075ZM228.655 241.42C228.506 239.873 228.345 238.325 228.171 236.779C228.73 236.728 229.278 236.675 229.818 236.622C230.303 236.575 230.783 236.512 231.255 236.435C231.423 238.018 231.579 239.607 231.718 241.199C230.716 241.278 229.695 241.352 228.655 241.42Z" fill="#1A1D63"/>
<path d="M201.149 212.687C200.534 212.669 199.923 212.646 199.315 212.621L199.269 207.068C199.264 206.52 199.214 205.982 199.117 205.453C200.385 207.092 201.118 208.99 201.135 211.011L201.149 212.687ZM85.8067 213.298L85.7956 211.966C85.7817 210.282 86.2658 208.676 87.1453 207.226C87.126 207.481 87.1192 207.737 87.1214 207.996L87.1643 213.177C86.7159 213.219 86.2639 213.259 85.8067 213.298Z" fill="#B9AFBE"/>
<path d="M186.343 233.157C198.335 236.642 216.841 235.74 229.453 234.503C237.018 233.763 242.288 228.548 241.127 222.975C240.067 217.888 233.978 214.233 227.03 214.532C215.228 215.039 197.521 215.377 186.293 213.628L186.343 233.157Z" fill="white"/>
<path d="M210.003 233.472C206.436 233.502 202.878 233.412 199.485 233.152L199.419 225.222C202.873 225.475 206.461 225.56 210.033 225.531C216.918 225.474 223.731 224.987 229.368 224.435C232.614 224.119 235.433 222.98 237.505 221.342C237.868 221.957 238.129 222.615 238.274 223.311C238.716 225.437 237.998 227.556 236.248 229.281C234.505 231.002 231.963 232.104 229.089 232.384C223.36 232.945 216.665 233.417 210.003 233.472Z" fill="#B9AFBE"/>
<path d="M187.409 231.166C198.682 234.443 216.298 233.638 229.089 232.384C231.963 232.104 234.505 231.002 236.248 229.281C237.998 227.557 238.716 225.437 238.274 223.311C237.435 219.288 232.664 216.437 227.182 216.665C214.669 217.204 197.451 217.481 186.095 215.783C184.96 216.641 183.012 220.76 183.586 225.391C183.767 226.846 184.501 230.322 187.409 231.166ZM210.16 237.734C201.245 237.808 192.271 237.179 185.275 235.146C176.916 232.717 176.591 222.889 179.002 217.011C181.337 211.323 185.305 211.29 186.9 211.537C197.626 213.208 214.561 212.928 226.878 212.398C235.303 212.032 242.689 216.436 243.98 222.639C244.664 225.913 243.555 229.18 240.86 231.837C238.17 234.488 234.25 236.189 229.818 236.622C223.938 237.197 217.067 237.677 210.16 237.734Z" fill="#1A1D63"/>
<path d="M51.7626 235.974C57.6874 236.456 64.9197 236.843 72.1545 236.734C72.652 236.73 73.1442 236.72 73.6415 236.703C74.1618 236.694 74.6917 236.678 75.2119 236.658C75.5673 236.65 75.9139 236.636 76.2545 236.622C76.6683 236.602 77.0769 236.581 77.4855 236.561C78.0057 236.534 78.5258 236.502 79.04 236.47L79.0784 236.47C79.5904 236.438 80.1126 236.399 80.6253 236.356C80.9651 236.33 81.3041 236.3 81.6365 236.269C81.9239 236.25 82.2097 236.219 82.4896 236.195C82.9335 236.152 83.3803 236.104 83.8094 236.055C84.2251 236.008 84.6313 235.96 85.0322 235.906C85.1157 235.9 85.1984 235.894 85.2744 235.876C85.7485 235.822 86.2173 235.756 86.6765 235.685C87.1453 235.62 87.6045 235.549 88.0585 235.472C88.0961 235.466 88.1315 235.46 88.1714 235.454C88.4268 235.407 88.6837 235.366 88.9331 235.319C89.2107 235.274 89.4904 235.221 89.77 235.163L89.7774 235.163C90.6298 234.999 91.4665 234.812 92.2802 234.617C92.7169 234.512 93.1543 234.396 93.5835 234.281C94.0135 234.165 94.4345 234.039 94.8422 233.913L94.7114 224.538L94.5675 214.386C91.7007 214.885 88.4033 215.248 84.8936 215.512C74.6891 216.285 62.6406 216.194 53.8544 215.964C53.6422 215.962 53.4323 215.958 53.2128 215.96C46.5355 216.015 40.8419 219.696 39.9004 224.639C38.8291 230.234 44.1884 235.361 51.7626 235.974Z" fill="white"/>
<path d="M71.1932 234.622C64.5322 234.677 57.8271 234.316 52.0895 233.85C49.213 233.617 46.6518 232.557 44.8816 230.867C43.1024 229.172 42.3487 227.063 42.7568 224.929C42.8347 224.52 42.9541 224.121 43.1099 223.737C45.2423 225.51 48.2349 226.728 51.6884 227.008C57.3084 227.464 64.1008 227.837 70.9584 227.78C71.3331 227.777 71.7056 227.772 72.0803 227.766C72.58 227.762 73.07 227.753 73.5673 227.737C74.0898 227.727 74.6175 227.712 75.1399 227.691C75.4931 227.682 75.8412 227.668 76.1818 227.654C76.5963 227.634 77.0049 227.615 77.4113 227.595C77.9337 227.568 78.4538 227.536 78.9658 227.504L79.0042 227.503C79.5184 227.471 80.0385 227.433 80.5526 227.389C80.8909 227.364 81.2314 227.333 81.5623 227.303C81.8497 227.283 82.1377 227.253 82.4169 227.228C82.8615 227.185 83.3061 227.137 83.7366 227.089C84.1524 227.041 84.5593 226.992 84.9602 226.939C85.0429 226.932 85.1242 226.926 85.2002 226.908C85.6765 226.856 86.1431 226.79 86.6045 226.719C86.829 226.687 87.0527 226.654 87.2756 226.62L87.3318 233.412C82.3825 234.235 76.8031 234.575 71.1932 234.622Z" fill="#B9AFBE"/>
<path d="M53.2268 218.097C47.9591 218.141 43.5042 221.017 42.7568 224.929C42.3487 227.063 43.1024 229.172 44.8816 230.867C46.6518 232.557 49.2129 233.617 52.0895 233.85C64.9013 234.891 82.5267 235.404 93.7438 231.942L94.8445 233.914L93.7438 231.942C96.6391 231.048 97.3162 227.562 97.4726 226.104C97.9693 221.462 95.9545 217.377 94.8041 216.538C83.4756 218.423 66.2597 218.432 53.7361 218.101C53.5653 218.097 53.3953 218.096 53.2268 218.097ZM71.1072 238.886C64.1972 238.943 57.3213 238.577 51.4321 238.099C46.9933 237.739 43.0445 236.106 40.3109 233.498C37.5743 230.886 36.412 227.637 37.039 224.352C38.227 218.13 45.5258 213.602 53.9713 213.83C66.2945 214.155 83.2304 214.155 93.9272 212.307C95.52 212.033 99.4861 212.001 101.915 217.649C104.426 223.486 104.263 233.318 95.943 235.886C88.9837 238.035 80.0188 238.812 71.1072 238.886Z" fill="#1A1D63"/>
<path d="M90.0047 207.972L90.2637 239.265C90.3118 245.072 96.7734 249.771 104.616 249.706L182.474 249.061C190.308 248.996 196.691 244.191 196.642 238.384L196.383 207.092C196.335 201.285 189.874 196.595 182.041 196.659L104.182 197.304C99.5651 197.342 95.4559 199.022 92.8619 201.58C91.0524 203.367 89.9849 205.585 90.0047 207.972Z" fill="white"/>
<path d="M161.256 237.776C160.372 237.784 159.45 237.772 158.492 237.738C134.058 236.877 130.291 222.337 130.291 222.337L127.966 222.357C127.711 220.655 126.824 219.1 125.483 217.818C123.219 215.653 119.66 214.275 115.667 214.308C110.693 214.349 106.427 216.571 104.516 219.732C103.986 220.611 103.636 221.562 103.504 222.559L101.229 222.578C101.229 222.578 101.387 231.968 96.6453 232.069C96.6268 232.069 96.6061 232.069 96.5869 232.069C95.1242 232.081 93.9908 231.429 93.0811 230.293L92.8961 207.948C92.8577 203.307 97.9256 199.49 104.194 199.438L182.056 198.794C188.325 198.742 193.457 202.474 193.496 207.115L193.566 215.603C182.473 221.492 186.216 237.57 161.256 237.776Z" fill="white"/>
<path d="M182.455 246.922L104.593 247.567C98.3241 247.619 93.1937 243.885 93.1553 239.245L93.0812 230.293C93.9909 231.429 95.1242 232.081 96.587 232.069C96.6062 232.069 96.6269 232.069 96.6454 232.069C101.387 231.968 101.229 222.578 101.229 222.578L103.504 222.559C103.463 222.872 103.443 223.192 103.446 223.513C103.449 223.941 103.491 224.359 103.573 224.77C104.441 229.194 109.604 232.561 115.818 232.51C121.99 232.458 127.071 229.049 127.915 224.656C128.004 224.215 128.044 223.766 128.04 223.31C128.037 222.988 128.012 222.669 127.966 222.357L130.291 222.337C130.291 222.337 134.058 236.877 158.492 237.738C159.45 237.772 160.372 237.784 161.256 237.776C186.216 237.57 182.473 221.492 193.566 215.603L193.755 238.412C193.793 243.052 188.723 246.871 182.455 246.922Z" fill="#B9AFBE"/>
<path d="M104.194 199.438C97.9257 199.49 92.8577 203.307 92.8961 207.948L93.1553 239.245C93.1937 243.885 98.3241 247.619 104.593 247.567L182.455 246.922C188.723 246.87 193.793 243.052 193.755 238.412L193.496 207.115C193.457 202.475 188.325 198.742 182.056 198.794L104.194 199.438ZM182.49 251.197L104.628 251.841C95.1747 251.92 87.4384 246.29 87.3805 239.293L87.1214 207.996C87.0635 200.999 94.7054 195.242 104.159 195.164L182.021 194.519C191.474 194.441 199.211 200.071 199.269 207.068L199.528 238.365C199.586 245.362 191.943 251.119 182.49 251.197Z" fill="#1A1D63"/>
<path d="M103.447 223.511C103.489 228.536 109.027 232.566 115.818 232.51C122.607 232.453 128.079 228.333 128.038 223.307C127.996 218.28 122.456 214.252 115.667 214.308C108.876 214.364 103.406 218.484 103.447 223.511Z" fill="#22A7F0"/>
<path d="M103.446 223.513C103.45 224.007 103.505 224.489 103.617 224.962C104.517 220.615 109.568 217.259 115.691 217.209C121.814 217.158 126.92 220.43 127.892 224.761C127.996 224.287 128.044 223.803 128.04 223.31C127.998 218.284 122.458 214.252 115.667 214.308C108.876 214.364 103.404 218.487 103.446 223.513Z" fill="white"/>
<path d="M115.818 232.505C109.695 232.556 104.591 229.286 103.618 224.956C103.866 223.761 104.428 222.641 105.241 221.644C107.414 224.238 111.32 225.948 115.763 225.912C120.206 225.875 124.084 224.102 126.216 221.472C127.043 222.457 127.624 223.568 127.893 224.761C127.895 224.751 127.897 224.741 127.898 224.731C127.011 229.088 121.953 232.454 115.818 232.505Z" fill="#2976B4"/>
<path d="M127.892 224.761C127.624 223.568 127.043 222.457 126.215 221.472C126.586 221.012 126.906 220.527 127.166 220.019C127.722 221.036 128.026 222.142 128.036 223.304C128.04 223.79 127.993 224.267 127.898 224.731C127.897 224.741 127.895 224.751 127.892 224.761ZM103.618 224.956C103.512 224.485 103.455 224.002 103.451 223.508C103.441 222.345 103.728 221.235 104.266 220.208C104.535 220.712 104.861 221.191 105.241 221.644C104.428 222.641 103.865 223.761 103.618 224.956Z" fill="#B9AFBE"/>
<path d="M115.679 215.91C110.093 215.957 105.578 219.358 105.612 223.493C105.646 227.627 110.217 230.952 115.803 230.906C121.39 230.86 125.906 227.459 125.872 223.325C125.837 219.191 121.266 215.864 115.679 215.91ZM115.83 234.112C107.858 234.178 101.33 229.43 101.281 223.528C101.232 217.626 107.68 212.77 115.652 212.704C123.625 212.638 130.154 217.387 130.203 223.289C130.252 229.191 123.803 234.046 115.83 234.112Z" fill="#1A1D63"/>
<path d="M150.819 251.458C149.224 251.471 147.924 250.525 147.914 249.346L147.764 231.178C147.737 227.913 149.815 224.774 153.322 222.782L159.908 219.039C161.982 217.862 163.21 216.007 163.194 214.077L163.051 196.814C163.041 195.633 164.325 194.666 165.92 194.653C167.515 194.639 168.816 195.586 168.826 196.766L168.969 214.029C168.996 217.295 166.917 220.433 163.41 222.426L156.824 226.169C154.75 227.345 153.522 229.2 153.538 231.13L153.689 249.298C153.698 250.477 152.414 251.445 150.819 251.458Z" fill="#1A1D63"/>
<path d="M244.774 154.73C251.761 175.606 280.277 173.419 288.118 171.94C304.474 168.851 309.999 157.379 309.999 157.379L296.681 144.564L290.747 137.62L283.719 136.116C278.143 128.723 266.329 120.385 259.61 123.417C259.61 123.417 238.75 136.735 244.774 154.73Z" fill="white"/>
<path d="M284.069 161.562C281.575 161.538 278.914 161.42 276.071 161.198C270.484 160.763 265.513 158.784 262.634 155.714C267.136 152.512 267.989 148.774 267.795 145.969C270.826 147.927 273.703 148.939 276.26 149.259L278.3 152.875C278.419 153.084 278.58 153.276 278.775 153.444C278.459 154.13 278.27 154.861 278.279 155.622C278.294 156.962 278.946 158.918 281.974 160.623C282.6 160.976 283.303 161.29 284.069 161.562Z" fill="#B9AFBE"/>
<path d="M311.323 129.502C304.841 134.402 299.158 138.022 299.158 138.022L280.966 152.041L268.426 129.81C268.426 129.81 268.317 125.303 268.743 119.333C269.57 107.513 272.464 89.9659 282.329 90.3362C300.073 91.0061 288.624 125.677 288.624 125.677C288.624 125.677 316.707 97.5002 328.112 105.343C334.788 109.933 321.972 121.447 311.323 129.502Z" fill="white"/>
<path d="M283.158 135.391C280.196 131.7 275.792 127.875 271.325 125.418C271.357 124.037 271.416 122.52 271.511 120.918C276.4 123.721 282.963 127.562 285.555 130.032C287.121 131.526 289.352 132.024 291.903 132.003C294.682 131.98 297.843 131.341 300.941 130.703C303.105 130.257 305.239 129.812 307.193 129.576C305.958 130.488 304.725 131.374 303.516 132.222C302.682 132.146 301.766 132.112 300.786 132.12C295.594 132.163 288.637 133.371 283.158 135.391Z" fill="#B9AFBE"/>
<path d="M271.306 129.355L281.941 148.215L297.081 136.544C297.145 136.495 297.213 136.449 297.283 136.403C308.7 129.126 326.882 115.19 327.07 108.775C327.101 107.712 326.591 107.223 326.144 106.916C325.211 106.274 324.097 106.022 322.644 106.127C312.982 106.815 296.483 121.387 290.941 126.944C290.123 127.764 288.64 128.046 287.395 127.619C286.15 127.191 285.49 126.173 285.818 125.182C287.995 118.577 292.335 100.124 286.329 94.1439C285.249 93.0685 283.927 92.5377 282.169 92.4708C281.603 92.4492 280.716 92.5124 279.614 93.3017C272.346 98.5038 271.155 120.695 271.306 129.355ZM280.983 154.181C280.799 154.182 280.615 154.17 280.429 154.145C279.475 154.015 278.674 153.537 278.3 152.875L265.761 130.639C265.621 130.39 265.547 130.125 265.539 129.855C265.462 126.593 265.093 97.7656 275.609 90.2365C277.601 88.8111 279.993 88.1107 282.491 88.2021C285.947 88.3328 288.879 89.5018 290.97 91.5843C296.682 97.2715 295.457 109.291 293.7 117.607C301.222 111.169 312.909 102.53 322.117 101.872C325.19 101.652 327.955 102.311 330.086 103.777C331.949 105.058 332.902 106.811 332.842 108.846C332.539 119.165 304.831 137.213 301.143 139.57L283.043 153.519C282.498 153.94 281.753 154.174 280.983 154.181Z" fill="#1A1D63"/>
<path d="M313.328 154.934C309.029 160.198 290.604 162.791 283.726 158.919C277.874 155.621 283.655 151.31 285.303 150.212C285.559 150.037 285.72 149.947 285.72 149.947C285.72 149.947 278.62 148.398 277.344 143.991C277.261 143.705 277.203 143.407 277.176 143.093C276.699 137.999 295.05 133.448 303.408 134.373C309.656 135.065 312.053 136.927 312.656 138.934C313.302 141.073 311.913 143.376 310.983 144.611C310.553 145.175 310.226 145.511 310.226 145.511C310.226 145.511 316.776 150.72 313.328 154.934Z" fill="white"/>
<path d="M288.6 149.997C288.605 149.846 288.59 149.693 288.551 149.542C288.353 148.762 287.584 148.13 286.56 147.899C286.537 147.893 285.677 147.695 284.586 147.264C285.415 146.576 286.035 145.758 286.404 144.865C287.576 144.914 288.8 144.937 290.061 144.927C296.534 144.873 303.944 143.919 309.872 140.704C309.593 142.17 308.43 143.698 307.884 144.27C307.408 144.758 307.246 145.355 307.387 145.914C302.689 147.502 295.991 149.329 288.6 149.997Z" fill="#B9AFBE"/>
<path d="M293.8 158.632C290.237 158.662 287.177 158.169 285.485 157.216C284.213 156.5 284.059 155.934 284.054 155.57C284.051 155.447 284.067 155.321 284.098 155.193C286.399 156.079 289.501 156.465 292.83 156.437C299.819 156.379 307.797 154.497 311.371 151.586C311.532 152.365 311.426 153.144 310.861 153.837C309.356 155.677 304.68 157.437 299.226 158.216C297.364 158.482 295.523 158.618 293.8 158.632Z" fill="#B9AFBE"/>
<path d="M300.732 136.386C294.835 136.435 285.543 138.481 281.468 141.273C280.533 141.912 280.019 142.519 280.059 142.936C280.395 146.471 286.497 147.885 286.56 147.899C287.584 148.13 288.353 148.762 288.551 149.542C288.748 150.321 288.352 151.119 287.512 151.615C286.379 152.293 284.031 154.158 284.054 155.57C284.059 155.934 284.213 156.5 285.485 157.216C287.994 158.63 293.516 159.031 299.226 158.216C304.68 157.437 309.356 155.677 310.861 153.837C313.093 151.108 308.151 147.01 308.102 146.97C307.174 146.225 307.079 145.094 307.884 144.27C308.657 143.461 310.662 140.741 309.659 138.986C308.772 137.433 305.531 136.768 302.97 136.485C302.305 136.411 301.552 136.379 300.732 136.386ZM293.786 162.919C288.912 162.959 284.717 162.169 281.974 160.623C278.946 158.918 278.294 156.962 278.279 155.622C278.257 153.684 279.526 151.932 280.872 150.623C278.024 149.331 274.654 147.023 274.3 143.256C274.181 142.021 274.652 140.13 277.559 138.141C283.684 133.949 296.955 131.497 303.851 132.257C309.707 132.905 313.454 134.611 314.991 137.325C316.693 140.331 315.035 143.531 313.737 145.336C315.823 147.48 319.152 151.937 315.797 156.037C313.382 158.987 307.587 161.371 300.291 162.413C298.04 162.735 295.85 162.901 293.786 162.919Z" fill="#1A1D63"/>
<path d="M288.052 152.115C287.234 152.122 286.406 152.112 285.569 152.081C283.975 152.026 282.752 151.025 282.835 149.846C282.92 148.666 284.28 147.743 285.87 147.812C298.282 148.247 308.642 143.728 308.744 143.682C310.117 143.076 311.887 143.4 312.701 144.409C313.516 145.42 313.073 146.73 311.706 147.341C311.255 147.542 301.104 152.007 288.052 152.115Z" fill="#1A1D63"/>
<path d="M259.612 123.419C268.531 119.394 286.409 135.387 286.794 142.628C287.09 148.153 278.28 152.84 267.649 145.873C256.876 138.814 245.605 129.741 259.612 123.419Z" fill="white"/>
<path d="M309.999 157.382C309.999 157.382 304.472 168.85 288.121 171.938C280.277 173.419 251.763 175.607 244.774 154.728C238.75 136.735 259.612 123.419 259.612 123.419C268.531 119.394 286.409 135.387 286.794 142.628C287.09 148.153 276.013 151.381 266.634 141.729C266.634 141.729 271.606 150.525 261.196 156.641L285.928 166.946L304.544 164.098L309.999 157.382Z" fill="white"/>
<path d="M266.032 152.366L265.538 152.163C265.907 151.945 266.242 151.734 266.562 151.51C266.403 151.791 266.23 152.079 266.032 152.366Z" fill="white"/>
<path d="M285.288 146.004C286.176 145.211 286.717 144.215 286.791 143.111C286.793 143.11 286.795 143.11 286.796 143.108C286.72 144.215 286.18 145.211 285.288 146.004Z" fill="#B9AFBE"/>
<path d="M279.551 147.9C276.862 147.922 273.687 147.071 270.506 144.964C270.007 142.092 267.006 140.087 267.006 140.087C266.782 139.489 266.986 139.245 267.518 139.241C268.651 139.231 271.268 140.313 274.357 141.392C277.449 142.471 281.014 143.545 284.043 143.52C285.027 143.512 285.955 143.388 286.791 143.111C286.717 144.215 286.176 145.211 285.288 146.004C283.997 147.154 281.969 147.88 279.551 147.9Z" fill="#B9AFBE"/>
<path d="M301.103 166.766C301.103 166.765 301.103 166.765 301.103 166.763C302.411 165.891 303.552 164.987 304.544 164.1L304.548 164.098C303.556 164.986 302.411 165.892 301.103 166.766ZM243.804 145.94C243.845 145.569 243.897 145.199 243.956 144.834C243.897 145.199 243.845 145.569 243.804 145.94Z" fill="#845EBE"/>
<path d="M274.288 172.746C265.169 172.276 254.329 169.666 248.163 161.313L248.163 161.311C254.176 169.457 264.63 172.141 273.601 172.705C273.826 172.719 274.049 172.732 274.273 172.743C274.278 172.745 274.282 172.745 274.288 172.746Z" fill="#B9AFBE"/>
<path d="M278.09 172.826C276.871 172.836 275.598 172.812 274.288 172.746C274.282 172.745 274.278 172.745 274.273 172.743C275.586 172.81 276.864 172.835 278.088 172.825C282.385 172.789 286.003 172.339 288.118 171.94C290.837 171.425 293.258 170.681 295.402 169.795C295.402 169.796 295.402 169.795 295.402 169.796C293.258 170.681 290.838 171.427 288.122 171.94C286.006 172.339 282.384 172.791 278.09 172.826Z" fill="#8C7B94"/>
<path d="M295.402 169.796C295.402 169.795 295.402 169.796 295.402 169.795C295.662 169.687 295.919 169.578 296.17 169.467C298.025 168.647 299.664 167.725 301.103 166.763C301.103 166.765 301.103 166.765 301.103 166.766C299.468 167.856 297.576 168.899 295.402 169.796ZM248.163 161.313C246.77 159.425 245.614 157.244 244.772 154.727C243.742 151.647 243.498 148.704 243.804 145.94C243.5 148.704 243.742 151.647 244.774 154.728C245.616 157.244 246.77 159.424 248.163 161.311L248.163 161.313Z" fill="#1A1D63"/>
<path d="M278.088 172.825C276.864 172.835 275.586 172.81 274.273 172.743C274.049 172.732 273.826 172.719 273.601 172.705C275.151 172.801 276.656 172.837 278.086 172.825C282.384 172.789 286.006 172.338 288.121 171.938C291.169 171.362 293.841 170.495 296.17 169.467C295.919 169.578 295.662 169.687 295.402 169.795C293.258 170.681 290.837 171.425 288.118 171.94C286.003 172.339 282.385 172.789 278.088 172.825ZM301.401 164.58C301.403 164.578 301.405 164.578 301.407 164.578L303.531 164.254L301.401 164.58Z" fill="#B9AFBE"/>
<path d="M243.958 144.828C243.96 144.814 243.962 144.802 243.965 144.789C243.962 144.802 243.96 144.814 243.958 144.828ZM243.965 144.783C243.967 144.771 243.969 144.758 243.972 144.746C243.969 144.758 243.967 144.771 243.965 144.783ZM243.975 144.725C243.975 144.719 243.975 144.715 243.978 144.709C243.978 144.715 243.975 144.719 243.975 144.725Z" fill="#845EBE"/>
<path d="M278.086 172.825C276.656 172.837 275.151 172.801 273.601 172.705C264.63 172.141 254.176 169.457 248.163 161.311C246.77 159.424 245.616 157.244 244.774 154.728C243.742 151.647 243.5 148.704 243.804 145.94C243.845 145.569 243.897 145.199 243.956 144.834C243.958 144.831 243.958 144.83 243.958 144.828C243.96 144.814 243.962 144.802 243.966 144.789C243.966 144.786 243.966 144.785 243.965 144.783C243.967 144.771 243.969 144.758 243.973 144.746C243.973 144.739 243.975 144.731 243.976 144.725C243.976 144.719 243.978 144.715 243.978 144.709C245.29 137.059 250.695 130.899 254.786 127.214C250.111 132.826 245.986 140.909 249.113 150.25C254.215 165.497 270.799 168.444 282.43 168.348C286.726 168.312 290.343 167.862 292.461 167.462C295.903 166.809 298.871 165.791 301.401 164.58L303.531 164.254L304.544 164.1C303.552 164.987 302.411 165.891 301.103 166.763C299.664 167.725 298.025 168.647 296.17 169.467C293.841 170.495 291.169 171.362 288.122 171.938C286.006 172.338 282.384 172.789 278.086 172.825Z" fill="#B9AFBE"/>
<path d="M309.993 157.392C309.939 157.504 309.496 158.383 308.565 159.671L308.082 159.747L309.993 157.392Z" fill="white"/>
<path d="M308.886 159.621C308.63 159.85 308.367 160.085 308.087 160.312C308.254 160.091 308.415 159.876 308.565 159.671L308.886 159.621Z" fill="white"/>
<path d="M256.344 169.145C254.722 168.926 253.25 168.421 251.903 167.782C250.555 167.139 249.34 166.346 248.309 165.441C246.192 163.657 244.625 161.55 243.556 159.362C241.507 155.008 240.397 150.348 240.949 145.704C241.459 141.067 243.487 136.603 246.419 132.602C247.886 130.595 249.573 128.69 251.447 126.897C252.382 125.998 253.362 125.126 254.394 124.283C254.913 123.863 255.436 123.446 255.983 123.038C256.544 122.622 257.055 122.248 257.732 121.804C257.838 121.736 257.947 121.675 258.062 121.621L258.117 121.596C259.972 120.75 262.233 120.53 264.101 120.709C265.996 120.881 267.629 121.346 269.112 121.886C270.6 122.428 271.918 123.082 273.171 123.773C274.426 124.461 275.586 125.207 276.688 125.985C278.902 127.534 280.868 129.225 282.677 131.007C284.463 132.803 286.089 134.692 287.429 136.767C288.09 137.809 288.688 138.893 289.129 140.087C289.346 140.685 289.531 141.307 289.617 141.992L289.675 142.504C289.677 142.685 289.663 142.876 289.651 143.061C289.609 143.432 289.635 143.805 289.504 144.174C289.183 145.675 288.031 147.09 286.512 148.097C284.986 149.101 283.065 149.761 281.159 149.928C280.681 150.009 280.212 150.009 279.74 150.014C279.275 150.01 278.787 150.049 278.34 149.994C277.437 149.898 276.509 149.827 275.684 149.603C275.261 149.505 274.832 149.413 274.419 149.303L273.25 148.901C272.446 148.65 271.758 148.303 271.057 147.967C268.289 146.589 266.147 144.824 264.287 142.984L269.297 140.896C269.557 141.384 269.694 141.717 269.848 142.117C269.997 142.501 270.122 142.885 270.225 143.27C270.448 144.041 270.573 144.821 270.657 145.609C270.776 147.185 270.655 148.798 270.218 150.403C270.041 151.211 269.624 151.987 269.2 152.748C268.945 153.113 268.655 153.469 268.383 153.827C268.109 154.187 267.716 154.485 267.382 154.809C265.977 156.071 264.024 156.952 261.793 157.2C261.19 157.266 260.631 156.959 260.544 156.514C260.525 156.412 260.531 156.311 260.559 156.217L260.601 156.085C260.852 155.272 261.281 154.691 261.599 154.082C261.914 153.476 262.312 152.964 262.605 152.427C263.291 151.396 263.864 150.395 264.339 149.321C264.826 148.254 265.023 147.083 264.896 145.909C264.83 145.323 264.739 144.733 264.571 144.157C264.493 143.866 264.4 143.581 264.292 143.302C264.196 143.039 264.048 142.715 263.969 142.563L263.954 142.532C263.388 141.428 264.144 140.187 265.639 139.765C266.875 139.416 268.228 139.732 268.98 140.475C270.536 142.014 272.285 143.42 274.271 144.404C276.228 145.372 278.462 145.934 280.326 145.701C281.277 145.636 282.059 145.31 282.667 144.923C283.255 144.518 283.718 144.02 283.826 143.408C283.903 143.268 283.846 143.097 283.881 142.945L283.907 142.707L283.869 142.429C283.826 142.06 283.709 141.642 283.553 141.219C283.241 140.37 282.764 139.486 282.21 138.616C279.922 135.128 276.544 131.817 272.702 129.092C270.78 127.737 268.671 126.519 266.511 125.712C265.441 125.317 264.352 125.038 263.405 124.956C262.445 124.874 261.72 124.975 261.105 125.243L261.491 125.035C261.077 125.306 260.544 125.685 260.08 126.036C259.598 126.394 259.13 126.767 258.666 127.144C257.741 127.899 256.855 128.687 256.012 129.498C254.32 131.117 252.802 132.833 251.494 134.619C248.88 138.192 247.137 142.079 246.703 146.041C246.247 149.985 247.07 154.033 249.257 157.672C250.321 159.478 251.549 161.18 252.954 162.811C254.381 164.442 255.901 165.993 257.443 167.972L257.452 167.983C257.744 168.356 257.569 168.835 257.064 169.051C256.838 169.149 256.583 169.177 256.344 169.145Z" fill="#1A1D63"/>
<path d="M312.718 158.09C312.428 158.683 312.193 159.122 311.885 159.6C311.589 160.069 311.278 160.526 310.941 160.969C310.609 161.418 310.238 161.845 309.886 162.283C309.509 162.707 309.11 163.121 308.719 163.537L307.458 164.741L306.086 165.877C305.129 166.608 304.165 167.33 303.077 167.955C302.042 168.621 300.892 169.188 299.762 169.75C298.555 170.238 297.408 170.781 296.14 171.16C293.708 172.046 290.926 172.426 288.18 172.111C288.038 172.094 287.94 171.995 287.964 171.89C287.973 171.844 288.005 171.804 288.05 171.775L288.063 171.766C290.178 170.388 292.253 169.569 294.226 168.555C295.25 168.11 296.14 167.512 297.076 166.989C297.93 166.379 298.853 165.844 299.633 165.187C300.039 164.873 300.449 164.565 300.813 164.222C301.189 163.887 301.593 163.574 301.946 163.226L303.001 162.187L304.001 161.117C304.625 160.382 305.247 159.648 305.795 158.889C306.066 158.507 306.35 158.133 306.596 157.749C306.842 157.383 307.115 156.959 307.281 156.673L307.356 156.541C307.984 155.454 309.679 154.946 311.144 155.405C312.555 155.846 313.233 157.033 312.718 158.09Z" fill="#1A1D63"/>
<path d="M265.594 211.46C260.245 211.504 242.064 210.599 236.113 196.685C227.547 176.662 239.744 161.754 240.269 161.129C240.901 160.374 242.237 160.139 243.251 160.604C244.265 161.068 244.578 162.053 243.948 162.807C243.806 162.976 232.308 177.157 240.241 195.703C246.15 209.515 265.85 208.284 266.684 208.224C267.883 208.145 268.929 208.784 269.038 209.664C269.147 210.544 268.276 211.327 267.086 211.414C267.052 211.417 266.512 211.453 265.594 211.46Z" fill="#1A1D63"/>
</svg>
